<?xml version="1.0" encoding="utf-8"?>
<svg viewBox="0 0 720 420" style="enable-background:new 0 0 720 420;" xmlns="http://www.w3.org/2000/svg">
  <defs>
    <style type="text/css">
	.st0{fill:#878787;}
	.st1{fill:#555655;}
	.st2{fill:#04253C;}
	.st3{fill:#F5F7F7;}
	.st4{fill:#E3E3E2;}
	.st5{fill:#EDEDEE;}
	.st6{fill:#355163;}
	.st7{fill:#D3EBF8;}
	.st8{fill:#677D8B;}
	.st9{opacity:0.28;fill:#757675;enable-background:new    ;}
	.st10{opacity:0.27;fill:#868686;enable-background:new    ;}
	.st11{fill:#868686;}
	.st12{fill:#84D3E7;}
	.st13{fill:#F6F7F7;}
	.st14{fill:#E1E2E1;}
	.st15{fill:#CCEBF9;}
	.st16{fill:#03253D;}
	.st17{fill:#CFCFCE;}
	.st18{fill:#01B0DA;}
	.st19{fill:#CFD0D0;}
	.st20{fill:#E8E7E7;}
	.st21{fill:#C7C6C5;}
	.st22{fill:#FFFFFF;}
	.st23{clip-path:url(#SVGID_10_);}
	.st24{clip-path:url(#SVGID_12_);fill:#03253D;}
	.st25{clip-path:url(#SVGID_14_);}
	.st26{clip-path:url(#SVGID_16_);fill:#03253D;}
	.st27{clip-path:url(#SVGID_18_);}
	.st28{clip-path:url(#SVGID_20_);fill:#03253D;}
	.st29{clip-path:url(#SVGID_22_);}
	.st30{clip-path:url(#SVGID_24_);fill:#03253D;}
	.st31{clip-path:url(#SVGID_26_);}
	.st32{clip-path:url(#SVGID_28_);fill:#03253D;}
	.st33{clip-path:url(#SVGID_30_);}
	.st34{clip-path:url(#SVGID_32_);fill:#41ADD2;}
	.st35{clip-path:url(#SVGID_34_);}
	.st36{clip-path:url(#SVGID_36_);fill:#FFFFFF;}
	.st37{fill:#F3F3F3;}
	.st38{fill:#E9E8E7;}
	.st39{fill:#EAEAEA;}
	.st40{fill:#052338;}
	.st41{fill:#928B8B;}
	.st42{fill:#D8D8D7;}
	.st43{fill:#04BDE4;}
	.st44{clip-path:url(#SVGID_38_);}
	.st45{clip-path:url(#SVGID_40_);fill:#03253D;}
	.st46{clip-path:url(#SVGID_42_);}
	.st47{clip-path:url(#SVGID_44_);fill:#03253D;}
	.st48{clip-path:url(#SVGID_46_);}
	.st49{clip-path:url(#SVGID_48_);fill:#03253D;}
	.st50{clip-path:url(#SVGID_50_);}
	.st51{clip-path:url(#SVGID_52_);fill:#03253D;}
	.st52{clip-path:url(#SVGID_54_);}
	.st53{clip-path:url(#SVGID_56_);fill:#03253D;}
	.st54{clip-path:url(#SVGID_58_);}
	.st55{clip-path:url(#SVGID_60_);fill:#41ADD2;}
	.st56{clip-path:url(#SVGID_62_);}
	.st57{clip-path:url(#SVGID_64_);fill:#FFFFFF;}
	.st58{clip-path:url(#SVGID_66_);}
	.st59{clip-path:url(#SVGID_68_);fill:#03253D;}
	.st60{clip-path:url(#SVGID_70_);}
	.st61{clip-path:url(#SVGID_72_);fill:#03253D;}
	.st62{clip-path:url(#SVGID_74_);}
	.st63{clip-path:url(#SVGID_76_);fill:#03253D;}
	.st64{clip-path:url(#SVGID_78_);}
	.st65{clip-path:url(#SVGID_80_);fill:#03253D;}
	.st66{clip-path:url(#SVGID_82_);}
	.st67{clip-path:url(#SVGID_84_);fill:#03253D;}
	.st68{clip-path:url(#SVGID_86_);}
	.st69{clip-path:url(#SVGID_88_);fill:#41ADD2;}
	.st70{clip-path:url(#SVGID_90_);}
	.st71{clip-path:url(#SVGID_92_);fill:#FFFFFF;}
	.st72{clip-path:url(#SVGID_94_);}
	.st73{clip-path:url(#SVGID_96_);fill:#03253D;}
	.st74{clip-path:url(#SVGID_98_);}
	.st75{clip-path:url(#SVGID_100_);fill:#03253D;}
	.st76{clip-path:url(#SVGID_102_);}
	.st77{clip-path:url(#SVGID_104_);fill:#03253D;}
	.st78{clip-path:url(#SVGID_106_);}
	.st79{clip-path:url(#SVGID_108_);fill:#03253D;}
	.st80{clip-path:url(#SVGID_110_);}
	.st81{clip-path:url(#SVGID_112_);fill:#03253D;}
	.st82{clip-path:url(#SVGID_114_);}
	.st83{clip-path:url(#SVGID_116_);fill:#41ADD2;}
	.st84{clip-path:url(#SVGID_118_);}
	.st85{clip-path:url(#SVGID_120_);fill:#FFFFFF;}
	.st86{clip-path:url(#SVGID_122_);}
	.st87{clip-path:url(#SVGID_124_);fill:#03253D;}
	.st88{clip-path:url(#SVGID_126_);}
	.st89{clip-path:url(#SVGID_128_);fill:#03253D;}
	.st90{clip-path:url(#SVGID_130_);}
	.st91{clip-path:url(#SVGID_132_);fill:#03253D;}
	.st92{clip-path:url(#SVGID_134_);}
	.st93{clip-path:url(#SVGID_136_);fill:#03253D;}
	.st94{clip-path:url(#SVGID_138_);}
	.st95{clip-path:url(#SVGID_140_);fill:#03253D;}
	.st96{clip-path:url(#SVGID_142_);}
	.st97{clip-path:url(#SVGID_144_);fill:#41ADD2;}
	.st98{clip-path:url(#SVGID_146_);}
	.st99{clip-path:url(#SVGID_148_);fill:#FFFFFF;}
</style>
  </defs>
  <g>
    <defs>
      <rect id="SVGID_1_" width="720" height="420"/>
    </defs>
    <rect width="720" height="420" transform="matrix(1, 0, 0, 1, 0, 0)" style="overflow: visible; fill: rgb(229, 245, 252);"/>
  </g>
  <g>
    <defs>
      <rect id="SVGID_3_" y="316.95" width="720" height="103.05"/>
    </defs>
    <rect y="316.95" width="720" height="103.05" transform="matrix(1, 0, 0, 1, 0, 0)" style="overflow: visible; fill: rgb(227, 227, 226);"/>
  </g>
  <g>
    <defs>
      <rect id="SVGID_5_" y="218.3" width="720" height="77.85"/>
    </defs>
    <rect y="218.3" width="720" height="77.85" transform="matrix(1, 0, 0, 1, 0, 0)" style="overflow: visible; fill: rgb(183, 228, 248);"/>
  </g>
  <g>
    <defs>
      <rect id="SVGID_7_" y="285.85" width="720" height="36.65"/>
    </defs>
    <rect y="285.85" width="720" height="36.65" transform="matrix(1, 0, 0, 1, 0, 0)" style="overflow: visible; fill: rgb(187, 187, 187);"/>
  </g>
  <g>
    <g>
      <g>
        <g>
          <path class="st0" d="M187.51,274.25c0-1.9,1.3-3.2,3.2-3.2h32.5c1.9,0,3.2,1.3,3.2,3.2v21.1c0,1.9-1.3,3.2-3.2,3.2h-32.5 c-1.9,0-3.2-1.3-3.2-3.2V274.25z"/>
        </g>
        <g>
          <path class="st0" d="M90.31,274.25c0-1.9,1.3-3.2,3.2-3.2h32.5c1.9,0,3.2,1.3,3.2,3.2v21.1c0,1.9-1.3,3.2-3.2,3.2h-32.5 c-1.9,0-3.2-1.3-3.2-3.2C90.31,295.35,90.31,274.25,90.31,274.25z"/>
        </g>
        <g>
          <g>
            <path class="st1" d="M64.31,335.75c0-4.1,3.4-7.4,7.4-7.4s7.4,3.4,7.4,7.4c0,4.1-3.4,7.4-7.4,7.4S64.31,339.75,64.31,335.75"/>
          </g>
          <g>
            <path class="st1" d="M47.21,335.75c0,4.1,3.2,7.4,7.4,7.4c4.1,0,7.4-3.4,7.4-7.4c0-4.1-3.4-7.4-7.4-7.4 S47.21,331.65,47.21,335.75"/>
          </g>
          <g>
            <path class="st2" d="M53.01,327.85c-1.3,0-2,1.3-1.3,2.5l3.6,4.9c0.4,0.4,0.9,0.7,1.3,0.7h6.6h6.5c0.7,0,1.2-0.3,1.3-0.7 l3.6-4.9c0.7-1.2,0-2.5-1.3-2.5h-10.1H53.01z"/>
          </g>
        </g>
        <g>
          <path class="st1" d="M233.71,335.75c0-4.1,3.4-7.4,7.4-7.4c4.1,0,7.4,3.4,7.4,7.4c0,4.1-3.4,7.4-7.4,7.4 C237.01,343.25,233.71,339.75,233.71,335.75"/>
        </g>
        <g>
          <path class="st1" d="M216.51,335.75c0,4.1,3.2,7.4,7.4,7.4c4.1,0,7.4-3.4,7.4-7.4c0-4.1-3.4-7.4-7.4-7.4 C219.91,328.25,216.51,331.65,216.51,335.75"/>
        </g>
        <g>
          <path class="st2" d="M222.31,327.85c-1.3,0-2,1.3-1.3,2.5l3.6,4.9c0.4,0.4,0.9,0.7,1.3,0.7h6.5h6.5c0.7,0,1.2-0.3,1.3-0.7 l3.6-4.9c0.7-1.2,0-2.5-1.3-2.5h-10.2H222.31z"/>
        </g>
        <g>
          <g>
            <path class="st1" d="M431.51,335.75c0-4.1,3.2-7.4,7.4-7.4c4.1,0,7.4,3.4,7.4,7.4c0,4.1-3.4,7.4-7.4,7.4 S431.51,339.75,431.51,335.75"/>
          </g>
          <g>
            <path class="st1" d="M414.01,335.75c0,4.1,3.4,7.4,7.4,7.4c4.1,0,7.4-3.4,7.4-7.4c0-4.1-3.4-7.4-7.4-7.4 S414.01,331.65,414.01,335.75"/>
          </g>
          <g>
            <path class="st2" d="M420.01,327.85c-1.3,0-2,1.3-1.3,2.5l3.6,4.9c0.4,0.4,0.9,0.7,1.3,0.7h6.5h6.5c0.7,0,1.2-0.3,1.3-0.7 l3.6-4.9c0.7-1.2,0-2.5-1.3-2.5h-10.2H420.01z"/>
          </g>
        </g>
        <g>
          <g>
            <path class="st1" d="M479.41,335.75c0-4.1,3.4-7.4,7.4-7.4c4.1,0,7.4,3.4,7.4,7.4c0,4.1-3.4,7.4-7.4,7.4 C482.81,343.25,479.41,339.75,479.41,335.75"/>
          </g>
          <g>
            <path class="st1" d="M462.21,335.75c0,4.1,3.4,7.4,7.4,7.4c4.1,0,7.4-3.4,7.4-7.4c0-4.1-3.4-7.4-7.4-7.4 S462.21,331.65,462.21,335.75"/>
          </g>
          <g>
            <path class="st2" d="M468.21,327.85c-1.3,0-2,1.3-1.3,2.5l3.6,4.9c0.4,0.4,0.9,0.7,1.3,0.7h6.5h6.5c0.7,0,1.2-0.3,1.3-0.7 l3.6-4.9c0.7-1.2,0-2.5-1.3-2.5h-10.2H468.21z"/>
          </g>
        </g>
        <g>
          <g>
            <path class="st1" d="M626.21,335.75c0-4.1,3.4-7.4,7.4-7.4c4.1,0,7.4,3.4,7.4,7.4c0,4.1-3.4,7.4-7.4,7.4 C629.51,343.25,626.21,339.75,626.21,335.75"/>
          </g>
          <g>
            <path class="st1" d="M608.91,335.75c0,4.1,3.4,7.4,7.4,7.4c4.1,0,7.4-3.4,7.4-7.4c0-4.1-3.4-7.4-7.4-7.4 C612.41,328.35,608.91,331.65,608.91,335.75"/>
          </g>
          <g>
            <path class="st2" d="M614.91,327.85c-1.3,0-2,1.3-1.3,2.5l3.6,4.9c0.4,0.4,0.9,0.7,1.3,0.7h6.5h6.5c0.7,0,1.2-0.3,1.3-0.7 l3.6-4.9c0.7-1.2,0-2.5-1.3-2.5h-10.2H614.91z"/>
          </g>
        </g>
        <g>
          <path class="st1" d="M284.31,335.75c0-4.1,3.4-7.4,7.4-7.4c4.1,0,7.4,3.4,7.4,7.4c0,4.1-3.4,7.4-7.4,7.4 C287.71,343.25,284.31,339.75,284.31,335.75"/>
        </g>
        <g>
          <path class="st1" d="M267.11,335.75c0,4.1,3.4,7.4,7.4,7.4c4.1,0,7.4-3.4,7.4-7.4c0-4.1-3.4-7.4-7.4-7.4 C270.51,328.25,267.11,331.65,267.11,335.75"/>
        </g>
        <g>
          <rect x="262.01" y="324.95" class="st2" width="190.7" height="5.4"/>
        </g>
        <g>
          <path class="st3" d="M436.71,324.95v-40.7c0-2.7-2.3-4.8-4.8-4.8h-149.4c-2.7,0-4.8,2.3-4.8,4.8v40.7H436.71z"/>
        </g>
        <g>
          <g>
            <path class="st4" d="M426.21,316.95v-29.9c0-0.7,0.7-1.2,1.2-1.2h1.3c0.7,0,1.2,0.7,1.2,1.2v29.9c0,0.7-0.7,1.2-1.2,1.2h-1.3 C426.81,318.15,426.21,317.65,426.21,316.95z"/>
          </g>
          <g>
            <path class="st4" d="M418.41,316.95v-29.9c0-0.7,0.4-1.2,1.2-1.2h1.3c0.7,0,1.2,0.7,1.2,1.2v29.9c0,0.7-0.7,1.2-1.2,1.2h-1.3 C418.81,318.15,418.41,317.65,418.41,316.95z"/>
          </g>
          <g>
            <path class="st4" d="M410.41,316.95v-29.9c0-0.7,0.7-1.2,1.2-1.2h1.3c0.7,0,1.2,0.7,1.2,1.2v29.9c0,0.7-0.7,1.2-1.2,1.2h-1.3 C411.11,318.15,410.71,317.65,410.41,316.95z"/>
          </g>
          <g>
            <path class="st4" d="M402.41,317.25v-29.9c0-0.7,0.7-1.2,1.2-1.2h1.3c0.7,0,1.2,0.7,1.2,1.2v29.9c0,0.4-0.4,0.9-0.9,0.9h-1.4 C403.31,318.15,402.81,317.65,402.41,317.25z"/>
          </g>
          <g>
            <path class="st4" d="M394.91,316.95v-29.9c0-0.7,0.7-1.2,1.2-1.2h1.3c0.7,0,1.2,0.7,1.2,1.2v29.9c0,0.7-0.4,1.2-1.2,1.2h-1.3 C395.31,318.15,394.91,317.65,394.91,316.95z"/>
          </g>
          <g>
            <path class="st4" d="M387.01,316.95v-29.9c0-0.7,0.7-1.2,1.2-1.2h1.3c0.7,0,1.2,0.7,1.2,1.2v29.9c0,0.7-0.7,1.2-1.2,1.2h-1.3 C387.41,318.15,387.01,317.65,387.01,316.95z"/>
          </g>
          <g>
            <path class="st4" d="M379.01,316.95v-29.9c0-0.7,0.7-1.2,1.2-1.2h1.3c0.7,0,1.2,0.7,1.2,1.2v29.9c0,0.7-0.4,1.2-1.2,1.2h-1.3 C379.71,318.15,379.31,317.65,379.01,316.95z"/>
          </g>
          <g>
            <path class="st4" d="M371.31,316.65v-29.9c0-0.4,0.4-0.9,0.9-0.9h1.3c0.7,0,1.2,0.7,1.2,1.2v29.9c0,0.7-0.7,1.2-1.2,1.2h-1.3 C371.81,318.15,371.31,317.65,371.31,316.65z"/>
          </g>
          <g>
            <path class="st4" d="M363.51,316.95v-29.9c0-0.7,0.7-1.2,1.2-1.2h1.3c0.7,0,1.2,0.7,1.2,1.2v29.9c0,0.7-0.7,1.2-1.2,1.2h-1.3 C363.91,318.15,363.51,317.65,363.51,316.95z"/>
          </g>
          <g>
            <path class="st4" d="M355.51,316.95v-29.9c0-0.7,0.7-1.2,1.2-1.2h1.3c0.7,0,1.2,0.7,1.2,1.2v29.9c0,0.7-0.7,1.2-1.2,1.2h-1.3 C356.01,318.15,355.51,317.65,355.51,316.95z"/>
          </g>
          <g>
            <path class="st4" d="M347.61,316.95v-29.9c0-0.7,0.4-1.2,1.2-1.2h1.3c0.7,0,1.2,0.7,1.2,1.2v29.9c0,0.7-0.7,1.2-1.2,1.2h-1.3 C348.41,318.15,347.81,317.65,347.61,316.95z"/>
          </g>
          <g>
            <path class="st4" d="M339.71,316.95v-29.9c0-0.7,0.7-1.2,1.2-1.2h1.3c0.7,0,1.2,0.7,1.2,1.2v29.9c0,0.7-0.7,1.2-1.2,1.2h-1.3 C340.41,318.15,340.01,317.65,339.71,316.95z"/>
          </g>
          <g>
            <path class="st4" d="M332.01,316.95v-29.9c0-0.7,0.7-1.2,1.2-1.2h1.3c0.7,0,1.2,0.7,1.2,1.2v29.9c0,0.7-0.4,1.2-1.2,1.2h-1.3 C332.41,318.15,332.01,317.65,332.01,316.95z"/>
          </g>
          <g>
            <path class="st4" d="M324.11,316.95v-29.9c0-0.7,0.7-1.2,1.2-1.2h1.3c0.7,0,1.2,0.7,1.2,1.2v29.9c0,0.7-0.7,1.2-1.2,1.2h-1.3 C324.61,318.15,324.11,317.65,324.11,316.95z"/>
          </g>
          <g>
            <path class="st4" d="M316.21,316.95v-29.9c0-0.7,0.4-1.2,1.2-1.2h1.3c0.7,0,1.2,0.7,1.2,1.2v29.9c0,0.7-0.7,1.2-1.2,1.2h-1.3 C316.91,318.15,316.41,317.65,316.21,316.95z"/>
          </g>
          <g>
            <path class="st4" d="M308.31,316.95v-29.9c0-0.7,0.7-1.2,1.2-1.2h1.3c0.7,0,1.2,0.7,1.2,1.2v29.9c0,0.7-0.7,1.2-1.2,1.2h-1.3 C308.91,318.15,308.51,317.65,308.31,316.95z"/>
          </g>
          <g>
            <path class="st4" d="M300.61,316.95v-29.9c0-0.7,0.7-1.2,1.2-1.2h1.3c0.7,0,1.2,0.7,1.2,1.2v29.9c0,0.7-0.7,1.2-1.2,1.2h-1.3 C301.01,318.15,300.61,317.65,300.61,316.95z"/>
          </g>
          <g>
            <path class="st4" d="M292.91,316.65v-29.9c0-0.4,0.4-0.9,0.9-0.9h1.3c0.7,0,1.2,0.7,1.2,1.2v29.9c0,0.7-0.7,1.2-1.2,1.2h-1.3 C293.21,318.15,292.61,317.65,292.91,316.65z"/>
          </g>
          <g>
            <path class="st4" d="M284.81,316.95v-29.9c0-0.7,0.7-1.2,1.2-1.2h1.3c0.7,0,1.2,0.7,1.2,1.2v29.9c0,0.7-0.4,1.2-1.2,1.2h-1.3 C285.51,318.15,284.91,317.65,284.81,316.95z"/>
          </g>
        </g>
        <g>
          <path class="st5" d="M631.11,324.95v-40.7c0-2.7-2.3-4.8-4.8-4.8h-149.4c-2.7,0-4.8,2.3-4.8,4.8v40.7H631.11z"/>
        </g>
        <g>
          <g>
            <path class="st4" d="M620.81,316.65v-29.9c0-0.4,0.4-0.9,0.9-0.9h1.3c0.7,0,1.2,0.7,1.2,1.2v29.9c0,0.7-0.7,1.2-1.2,1.2h-1.3 C621.01,318.15,620.51,317.65,620.81,316.65z"/>
          </g>
          <g>
            <path class="st4" d="M612.71,316.95v-29.9c0-0.7,0.7-1.2,1.2-1.2h1.3c0.7,0,1.2,0.7,1.2,1.2v29.9c0,0.7-0.7,1.2-1.2,1.2h-1.3 C613.31,318.15,612.81,317.65,612.71,316.95z"/>
          </g>
          <g>
            <path class="st4" d="M604.41,317.25v-29.9c0-0.7,0.7-1.2,1.2-1.2h1.3c0.7,0,1.2,0.7,1.2,1.2v29.9c0,0.4-0.4,0.9-0.9,0.9h-1.3 C605.41,318.15,605.01,317.65,604.41,317.25z"/>
          </g>
          <g>
            <path class="st4" d="M597.01,316.95v-29.9c0-0.7,0.7-1.2,1.2-1.2h1.3c0.7,0,1.2,0.7,1.2,1.2v29.9c0,0.7-0.7,1.2-1.2,1.2h-1.3 C597.41,318.15,597.01,317.65,597.01,316.95z"/>
          </g>
          <g>
            <path class="st4" d="M589.01,316.95v-29.9c0-0.7,0.7-1.2,1.2-1.2h1.3c0.7,0,1.2,0.7,1.2,1.2v29.9c0,0.7-0.4,1.2-1.2,1.2h-1.3 C589.61,318.15,589.01,317.65,589.01,316.95z"/>
          </g>
          <g>
            <path class="st4" d="M581.21,316.95v-29.9c0-0.7,0.7-1.2,1.2-1.2h1.3c0.7,0,1.2,0.7,1.2,1.2v29.9c0,0.7-0.7,1.2-1.2,1.2h-1.3 C581.91,318.15,581.31,317.65,581.21,316.95z"/>
          </g>
          <g>
            <path class="st4" d="M573.31,316.95v-29.9c0-0.7,0.7-1.2,1.2-1.2h1.3c0.7,0,1.2,0.7,1.2,1.2v29.9c0,0.7-0.7,1.2-1.2,1.2h-1.3 C573.91,318.15,573.51,317.65,573.31,316.95z"/>
          </g>
          <g>
            <path class="st4" d="M565.61,316.95v-29.9c0-0.7,0.7-1.2,1.2-1.2h1.3c0.7,0,1.2,0.7,1.2,1.2v29.9c0,0.7-0.7,1.2-1.2,1.2h-1.3 C566.11,318.15,565.61,317.65,565.61,316.95z"/>
          </g>
          <g>
            <path class="st4" d="M557.71,316.95v-29.9c0-0.7,0.7-1.2,1.2-1.2h1.3c0.7,0,1.2,0.7,1.2,1.2v29.9c0,0.7-0.7,1.2-1.2,1.2h-1.3 C558.11,318.15,557.71,317.65,557.71,316.95z"/>
          </g>
          <g>
            <path class="st4" d="M549.81,316.95v-29.9c0-0.7,0.7-1.2,1.2-1.2h1.3c0.7,0,1.2,0.7,1.2,1.2v29.9c0,0.7-0.4,1.2-1.2,1.2h-1.3 C550.41,318.15,550.01,317.65,549.81,316.95z"/>
          </g>
          <g>
            <path class="st4" d="M541.81,316.95v-29.9c0-0.7,0.4-1.2,1.2-1.2h1.3c0.7,0,1.2,0.7,1.2,1.2v29.9c0,0.7-0.7,1.2-1.2,1.2h-1.3 C542.51,318.15,542.11,317.65,541.81,316.95z"/>
          </g>
          <g>
            <path class="st4" d="M534.11,316.95v-29.9c0-0.7,0.4-1.2,1.2-1.2h1.3c0.7,0,1.2,0.7,1.2,1.2v29.9c0,0.7-0.7,1.2-1.2,1.2h-1.3 C534.61,318.15,534.11,317.65,534.11,316.95z"/>
          </g>
          <g>
            <path class="st4" d="M526.31,316.95v-29.9c0-0.7,0.7-1.2,1.2-1.2h1.3c0.7,0,1.2,0.7,1.2,1.2v29.9c0,0.7-0.4,1.2-1.2,1.2h-1.3 C526.71,318.15,526.31,317.65,526.31,316.95z"/>
          </g>
          <g>
            <path class="st4" d="M518.61,316.65v-29.9c0-0.4,0.4-0.9,0.9-0.9h1.3c0.7,0,1.2,0.7,1.2,1.2v29.9c0,0.7-0.7,1.2-1.2,1.2h-1.3 C519.01,318.15,518.61,317.65,518.61,316.65z"/>
          </g>
          <g>
            <path class="st4" d="M510.41,316.95v-29.9c0-0.7,0.7-1.2,1.2-1.2h1.3c0.7,0,1.2,0.7,1.2,1.2v29.9c0,0.7-0.4,1.2-1.2,1.2h-1.3 C511.01,318.15,510.61,317.65,510.41,316.95z"/>
          </g>
          <g>
            <path class="st4" d="M502.71,316.95v-29.9c0-0.7,0.7-1.2,1.2-1.2h1.3c0.7,0,1.2,0.7,1.2,1.2v29.9c0,0.7-0.7,1.2-1.2,1.2h-1.3 C503.21,318.15,502.71,317.65,502.71,316.95z"/>
          </g>
          <g>
            <path class="st4" d="M494.81,316.95v-29.9c0-0.7,0.7-1.2,1.2-1.2h1.3c0.7,0,1.2,0.7,1.2,1.2v29.9c0,0.7-0.7,1.2-1.2,1.2h-1.3 C495.21,318.15,494.81,317.65,494.81,316.95z"/>
          </g>
          <g>
            <path class="st4" d="M486.91,316.95v-29.9c0-0.7,0.4-1.2,1.2-1.2h1.3c0.7,0,1.2,0.7,1.2,1.2v29.9c0,0.7-0.7,1.2-1.2,1.2h-1.3 C487.51,318.15,487.11,317.65,486.91,316.95z"/>
          </g>
          <g>
            <path class="st4" d="M479.01,316.95v-29.9c0-0.7,0.7-1.2,1.2-1.2h1.3c0.7,0,1.2,0.7,1.2,1.2v29.9c0,0.7-0.4,1.2-1.2,1.2h-1.3 C479.71,318.15,479.21,317.65,479.01,316.95z"/>
          </g>
        </g>
        <g>
          <rect x="456.11" y="324.95" class="st2" width="190.7" height="5.4"/>
        </g>
        <g>
          <path class="st6" d="M258.31,275.15H65.51c-2.9,0-5.8,1.3-7.7,3.6l-18,22.2c-1.3,1.9-2,3.8-2,5.8v18h220.5v-49.4V275.15z"/>
        </g>
        <g>
          <g>
            <polygon class="st2" points="353.51,327.85 353.51,337.75 394.71,337.75 404.91,327.85 &#9;&#9;&#9;&#9;&#9;"/>
          </g>
          <g>
            <polygon class="st2" points="361.01,327.85 361.01,337.75 319.81,337.75 309.91,327.85 &#9;&#9;&#9;&#9;&#9;"/>
          </g>
        </g>
        <g>
          <rect x="37.61" y="324.95" class="st2" width="220.7" height="5.4"/>
        </g>
        <g>
          <polygon class="st2" points="85.41,327.85 95.51,337.75 129.21,337.75 167.01,337.75 200.71,337.75 210.61,327.85 &#10;&#9;&#9;&#9;&#9;&#9;167.01,327.85 129.21,327.85 &#9;&#9;&#9;&#9;"/>
        </g>
        <g>
          <path class="st2" d="M273.01,327.85c-1.3,0-2,1.3-1.3,2.5l3.6,4.9c0.4,0.4,0.9,0.7,1.3,0.7h6.5h6.5c0.7,0,1.2-0.3,1.3-0.7 l3.6-4.9c0.7-1.2,0-2.5-1.3-2.5h-10.2H273.01z"/>
        </g>
        <g>
          <g>
            <polygon class="st2" points="547.81,327.85 547.81,337.75 588.91,337.75 599.01,327.85 &#9;&#9;&#9;&#9;&#9;"/>
          </g>
          <g>
            <polygon class="st2" points="555.21,327.85 555.21,337.75 514.11,337.75 503.91,327.85 &#9;&#9;&#9;&#9;&#9;"/>
          </g>
        </g>
        <g>
          <path class="st7" d="M64.31,281.95c0-0.7,0.4-1.2,1.2-1.2h7c0.7,0,1.2,0.4,1.2,1.2v7.4c0,0.7-0.4,1.2-1.2,1.2h-7 c-0.7,0-1.2-0.4-1.2-1.2V281.95z"/>
        </g>
        <g>
          <path class="st7" d="M75.81,281.95c0-0.7,0.4-1.2,1.2-1.2h7c0.7,0,1.2,0.4,1.2,1.2v7.4c0,0.7-0.4,1.2-1.2,1.2h-7 c-0.7,0-1.2-0.4-1.2-1.2V281.95z"/>
        </g>
        <g>
          <path class="st7" d="M156.81,281.95c0-0.7,0.4-1.2,1.2-1.2h7c0.7,0,1.2,0.4,1.2,1.2v7.4c0,0.7-0.4,1.2-1.2,1.2h-7 c-0.7,0-1.2-0.4-1.2-1.2V281.95z"/>
        </g>
        <g>
          <path class="st7" d="M168.61,281.95c0-0.7,0.4-1.2,1.2-1.2h7c0.7,0,1.2,0.4,1.2,1.2v7.4c0,0.7-0.4,1.2-1.2,1.2h-7 c-0.7,0-1.2-0.4-1.2-1.2V281.95z"/>
        </g>
        <g>
          <path class="st8" d="M112.31,282.15h-10.9c-0.3,0-0.4-0.3-0.4-0.4v-0.4c0-0.3,0.3-0.4,0.4-0.4h10.9c0.3,0,0.4,0.3,0.4,0.4v0.4 C112.71,281.65,112.41,281.95,112.31,282.15z"/>
        </g>
        <g>
          <path class="st8" d="M112.31,284.85h-10.9c-0.3,0-0.4-0.3-0.4-0.4v-0.4c0-0.3,0.3-0.4,0.4-0.4h10.9c0.3,0,0.4,0.3,0.4,0.4v0.4 C112.71,284.55,112.41,284.85,112.31,284.85z"/>
        </g>
        <g>
          <path class="st8" d="M112.31,287.75h-10.9c-0.3,0-0.4-0.3-0.4-0.4v-0.4c0-0.3,0.3-0.4,0.4-0.4h10.9c0.3,0,0.4,0.3,0.4,0.4v0.4 C112.71,287.65,112.41,287.75,112.31,287.75z"/>
        </g>
        <g>
          <path class="st8" d="M112.31,290.85h-10.9c-0.3,0-0.4-0.3-0.4-0.4v-0.4c0-0.3,0.3-0.4,0.4-0.4h10.9c0.3,0,0.4,0.3,0.4,0.4v0.4 C112.71,290.55,112.41,290.55,112.31,290.85z"/>
        </g>
        <g>
          <path class="st8" d="M126.01,282.15h-10.9c-0.3,0-0.4-0.3-0.4-0.4v-0.4c0-0.3,0.3-0.4,0.4-0.4h10.9c0.3,0,0.4,0.3,0.4,0.4v0.4 C126.51,281.65,126.51,281.95,126.01,282.15z"/>
        </g>
        <g>
          <path class="st8" d="M126.01,284.85h-10.9c-0.3,0-0.4-0.3-0.4-0.4v-0.4c0-0.3,0.3-0.4,0.4-0.4h10.9c0.3,0,0.4,0.3,0.4,0.4v0.4 C126.51,284.55,126.51,284.85,126.01,284.85z"/>
        </g>
        <g>
          <path class="st8" d="M126.01,287.75h-10.9c-0.3,0-0.4-0.3-0.4-0.4v-0.4c0-0.3,0.3-0.4,0.4-0.4h10.9c0.3,0,0.4,0.3,0.4,0.4v0.4 C126.51,287.65,126.51,287.75,126.01,287.75z"/>
        </g>
        <g>
          <path class="st8" d="M126.01,290.85h-10.9c-0.3,0-0.4-0.3-0.4-0.4v-0.4c0-0.3,0.3-0.4,0.4-0.4h10.9c0.3,0,0.4,0.3,0.4,0.4v0.4 C126.51,290.55,126.51,290.55,126.01,290.85z"/>
        </g>
        <g>
          <path class="st8" d="M219.21,282.15h-10.9c-0.3,0-0.4-0.3-0.4-0.4v-0.4c0-0.3,0.3-0.4,0.4-0.4h10.9c0.3,0,0.4,0.3,0.4,0.4v0.4 C219.61,281.65,219.61,281.95,219.21,282.15z"/>
        </g>
        <g>
          <path class="st8" d="M219.21,284.85h-10.9c-0.3,0-0.4-0.3-0.4-0.4v-0.4c0-0.3,0.3-0.4,0.4-0.4h10.9c0.3,0,0.4,0.3,0.4,0.4v0.4 C219.61,284.55,219.61,284.85,219.21,284.85z"/>
        </g>
        <g>
          <path class="st8" d="M219.21,287.75h-10.9c-0.3,0-0.4-0.3-0.4-0.4v-0.4c0-0.3,0.3-0.4,0.4-0.4h10.9c0.3,0,0.4,0.3,0.4,0.4v0.4 C219.61,287.65,219.61,287.75,219.21,287.75z"/>
        </g>
        <g>
          <path class="st8" d="M219.21,290.85h-10.9c-0.3,0-0.4-0.3-0.4-0.4v-0.4c0-0.3,0.3-0.4,0.4-0.4h10.9c0.3,0,0.4,0.3,0.4,0.4v0.4 C219.61,290.55,219.61,290.55,219.21,290.85z"/>
        </g>
        <g>
          <path class="st8" d="M233.21,282.15h-10.9c-0.3,0-0.4-0.3-0.4-0.4v-0.4c0-0.3,0.3-0.4,0.4-0.4h10.9c0.3,0,0.4,0.3,0.4,0.4v0.4 C233.71,281.65,233.41,281.95,233.21,282.15z"/>
        </g>
        <g>
          <path class="st8" d="M233.21,284.85h-10.9c-0.3,0-0.4-0.3-0.4-0.4v-0.4c0-0.3,0.3-0.4,0.4-0.4h10.9c0.3,0,0.4,0.3,0.4,0.4v0.4 C233.71,284.55,233.41,284.85,233.21,284.85z"/>
        </g>
        <g>
          <path class="st8" d="M233.21,287.75h-10.9c-0.3,0-0.4-0.3-0.4-0.4v-0.4c0-0.3,0.3-0.4,0.4-0.4h10.9c0.3,0,0.4,0.3,0.4,0.4v0.4 C233.71,287.65,233.41,287.75,233.21,287.75z"/>
        </g>
        <g>
          <path class="st8" d="M233.21,290.85h-10.9c-0.3,0-0.4-0.3-0.4-0.4v-0.4c0-0.3,0.3-0.4,0.4-0.4h10.9c0.3,0,0.4,0.3,0.4,0.4v0.4 C233.71,290.55,233.41,290.55,233.21,290.85z"/>
        </g>
        <g>
          <rect x="99.21" y="296.15" class="st8" width="1.3" height="28.7"/>
        </g>
        <g>
          <rect x="86.31" y="296.15" class="st8" width="1.3" height="28.7"/>
        </g>
        <g>
          <rect x="249.01" y="296.15" class="st8" width="1.3" height="28.7"/>
        </g>
        <g>
          <rect x="236.11" y="296.15" class="st8" width="1.3" height="28.7"/>
        </g>
      </g>
    </g>
    <path class="st9" d="M-2.19,344.85L-2.19,344.85c0-0.7,0.4-1.3,1.4-1.3h640.1c0.7,0,1.4,0.4,1.4,1.3l0,0c0,0.7-0.4,1.3-1.4,1.3 H-0.49C-1.49,346.15-2.19,345.45-2.19,344.85z"/>
  </g>
  <g>
    <path class="st10" d="M694.23,380.7H311.16c-1.03,0-1.65-0.82-1.65-1.75l0,0c0-1.03,0.82-1.75,1.65-1.75h383.07 c1.03,0,1.65,0.82,1.65,1.75l0,0C695.88,379.87,695.26,380.7,694.23,380.7z"/>
    <g>
      <g>
        <rect x="419.93" y="340.01" class="st11" width="280.38" height="18.33"/>
      </g>
      <g>
        <path class="st12" d="M345.15,364.42c-2.88,0-5.15-2.27-5.15-5.15v-42.75c0-0.82,0.21-1.44,0.41-2.27l15.35-32.86 c0.82-1.85,2.68-2.88,4.74-2.88h54.18c2.88,0,5.15,2.27,5.15,5.15v80.76H345.15L345.15,364.42z"/>
      </g>
      <g>
        <path class="st13" d="M351.33,366.79c0-20.6,5.97-25.54,20.6-25.54c14.94,0,20.81,5.15,20.81,25.54"/>
      </g>
      <g>
        <path class="st13" d="M429.3,340.01v-67.88c0-4.33,3.5-7.83,7.83-7.83h248.03c4.33,0,7.83,3.5,7.83,7.83v67.88H429.3z"/>
      </g>
      <g>
        <path class="st14" d="M677.03,328.58h3.09c0.62,0,1.24-0.62,1.24-1.24v-50.37c0-0.62-0.62-1.24-1.24-1.24h-3.09 c-0.62,0-1.24,0.62-1.24,1.24v50.37C675.48,327.96,676,328.58,677.03,328.58"/>
      </g>
      <g>
        <path class="st14" d="M663.74,328.58h3.09c0.62,0,1.24-0.62,1.24-1.24v-50.37c0-0.62-0.62-1.24-1.24-1.24h-3.09 c-0.62,0-1.24,0.62-1.24,1.24v50.37C662.5,327.96,663.12,328.58,663.74,328.58"/>
      </g>
      <g>
        <path class="st14" d="M650.66,328.58h3.09c0.62,0,1.24-0.62,1.24-1.24v-50.37c0-0.62-0.62-1.24-1.24-1.24h-3.09 c-0.62,0-1.24,0.62-1.24,1.24v50.37C649.52,327.96,650.04,328.58,650.66,328.58"/>
      </g>
      <g>
        <path class="st14" d="M637.68,328.58h3.09c0.62,0,1.24-0.62,1.24-1.24v-50.37c0-0.62-0.62-1.24-1.24-1.24h-3.09 c-0.62,0-1.24,0.62-1.24,1.24v50.37C636.44,327.96,637.06,328.58,637.68,328.58"/>
      </g>
      <g>
        <path class="st14" d="M624.7,328.58h3.09c0.62,0,1.24-0.62,1.24-1.24v-50.37c0-0.62-0.62-1.24-1.24-1.24h-3.09 c-0.62,0-1.24,0.62-1.24,1.24v50.37C623.46,327.96,623.98,328.58,624.7,328.58"/>
      </g>
      <g>
        <path class="st14" d="M611.72,328.58h3.09c0.62,0,1.24-0.62,1.24-1.24v-50.37c0-0.62-0.62-1.24-1.24-1.24h-3.09 c-0.62,0-1.24,0.62-1.24,1.24v50.37C610.49,327.96,610.9,328.58,611.72,328.58"/>
      </g>
      <g>
        <path class="st14" d="M598.74,328.58h3.09c0.62,0,1.24-0.62,1.24-1.24v-50.37c0-0.62-0.62-1.24-1.24-1.24h-3.09 c-0.62,0-1.24,0.62-1.24,1.24v50.37C597.51,327.96,597.92,328.58,598.74,328.58"/>
      </g>
      <g>
        <path class="st14" d="M585.56,328.58h3.09c0.62,0,1.24-0.62,1.24-1.24v-50.37c0-0.62-0.62-1.24-1.24-1.24h-3.09 c-0.62,0-1.24,0.62-1.24,1.24v50.37C584.22,327.96,584.84,328.58,585.56,328.58"/>
      </g>
      <g>
        <path class="st14" d="M572.48,328.58h3.09c0.62,0,1.24-0.62,1.24-1.24v-50.37c0-0.62-0.62-1.24-1.24-1.24h-3.09 c-0.62,0-1.24,0.62-1.24,1.24v50.37C571.24,327.96,571.86,328.58,572.48,328.58"/>
      </g>
      <g>
        <path class="st14" d="M559.6,328.58h3.09c0.62,0,1.24-0.62,1.24-1.24v-50.37c0-0.62-0.62-1.24-1.24-1.24h-3.09 c-0.62,0-1.24,0.62-1.24,1.24v50.37C558.37,327.96,558.88,328.58,559.6,328.58"/>
      </g>
      <g>
        <path class="st14" d="M546.52,328.58h3.09c0.62,0,1.24-0.62,1.24-1.24v-50.37c0-0.62-0.62-1.24-1.24-1.24h-3.09 c-0.62,0-1.24,0.62-1.24,1.24v50.37C545.28,327.96,545.9,328.58,546.52,328.58"/>
      </g>
      <g>
        <path class="st14" d="M533.54,328.58h3.09c0.62,0,1.24-0.62,1.24-1.24v-50.37c0-0.62-0.62-1.24-1.24-1.24h-3.09 c-0.62,0-1.24,0.62-1.24,1.24v50.37C532.31,327.96,532.72,328.58,533.54,328.58"/>
      </g>
      <g>
        <path class="st14" d="M520.56,328.58h3.09c0.62,0,1.24-0.62,1.24-1.24v-50.37c0-0.62-0.62-1.24-1.24-1.24h-3.09 c-0.62,0-1.24,0.62-1.24,1.24v50.37C519.22,327.96,519.64,328.58,520.56,328.58"/>
      </g>
      <g>
        <path class="st14" d="M507.58,328.58h3.09c0.62,0,1.24-0.62,1.24-1.24v-50.37c0-0.62-0.62-1.24-1.24-1.24h-3.09 c-0.62,0-1.24,0.62-1.24,1.24v50.37C506.14,327.96,506.76,328.58,507.58,328.58"/>
      </g>
      <g>
        <path class="st14" d="M494.3,328.58h3.09c0.62,0,1.24-0.62,1.24-1.24v-50.37c0-0.62-0.62-1.24-1.24-1.24h-3.09 c-0.62,0-1.24,0.62-1.24,1.24v50.37C493.06,327.96,493.78,328.58,494.3,328.58"/>
      </g>
      <g>
        <path class="st14" d="M481.32,328.58h3.09c0.62,0,1.24-0.62,1.24-1.24v-50.37c0-0.62-0.62-1.24-1.24-1.24h-3.09 c-0.62,0-1.24,0.62-1.24,1.24v50.37C480.08,327.96,480.7,328.58,481.32,328.58"/>
      </g>
      <g>
        <path class="st14" d="M468.24,328.58h3.09c0.62,0,1.24-0.62,1.24-1.24v-50.37c0-0.62-0.62-1.24-1.24-1.24h-3.09 c-0.62,0-1.24,0.62-1.24,1.24v50.37C467.1,327.96,467.72,328.58,468.24,328.58"/>
      </g>
      <g>
        <path class="st14" d="M455.36,328.58h3.09c0.62,0,1.24-0.62,1.24-1.24v-50.37c0-0.62-0.62-1.24-1.24-1.24h-3.09 c-0.62,0-1.24,0.62-1.24,1.24v50.37C454.13,327.96,454.74,328.58,455.36,328.58"/>
      </g>
      <g>
        <path class="st14" d="M442.28,328.58h3.09c0.62,0,1.24-0.62,1.24-1.24v-50.37c0-0.62-0.62-1.24-1.24-1.24h-3.09 c-0.62,0-1.24,0.62-1.24,1.24v50.37C441.15,327.96,441.56,328.58,442.28,328.58"/>
      </g>
      <g>
        <path class="st15" d="M389.34,299.74c0,0.82,0.82,1.65,1.65,1.65h10.3c0.82,0,1.65-0.82,1.65-1.65v-11.23 c0-0.82-0.82-1.65-1.65-1.65h-10.3c-0.82,0-1.65,0.82-1.65,1.65V299.74z"/>
      </g>
      <g>
        <path class="st16" d="M644.99,362.26c0,9.06,7.21,16.27,16.27,16.27s16.27-7.21,16.27-16.27s-7.21-16.27-16.27-16.27 C652.31,345.98,644.99,353.09,644.99,362.26"/>
      </g>
      <g>
        <path class="st17" d="M652.2,362.26c0,5.15,4.12,9.37,9.37,9.37c5.15,0,9.37-4.12,9.37-9.37c0-5.15-4.12-9.37-9.37-9.37 C656.22,352.89,652.2,357.01,652.2,362.26"/>
      </g>
      <g>
        <path class="st16" d="M607.6,362.26c0,9.06,7.21,16.27,16.27,16.27s16.27-7.21,16.27-16.27s-7.21-16.27-16.27-16.27 S607.6,353.09,607.6,362.26"/>
      </g>
      <g>
        <path class="st17" d="M614.61,362.26c0,5.15,4.12,9.37,9.37,9.37c5.15,0,9.37-4.12,9.37-9.37c0-5.15-4.12-9.37-9.37-9.37 S614.61,357.01,614.61,362.26"/>
      </g>
      <g>
        <path class="st16" d="M471.22,362.26c0,9.06,7.21,16.27,16.27,16.27s16.27-7.21,16.27-16.27s-7.21-16.27-16.27-16.27 S471.22,353.09,471.22,362.26"/>
      </g>
      <g>
        <path class="st17" d="M478.23,362.26c0,5.15,4.12,9.37,9.37,9.37c5.15,0,9.37-4.12,9.37-9.37c0-5.15-4.12-9.37-9.37-9.37 C482.35,352.89,478.23,357.01,478.23,362.26"/>
      </g>
      <g>
        <path class="st16" d="M433.63,362.26c0,9.06,7.21,16.27,16.27,16.27s16.27-7.21,16.27-16.27s-7.21-16.27-16.27-16.27 C441.15,345.98,433.63,353.09,433.63,362.26"/>
      </g>
      <g>
        <path class="st17" d="M440.94,362.26c0,5.15,4.12,9.37,9.37,9.37c5.15,0,9.37-4.12,9.37-9.37c0-5.15-4.12-9.37-9.37-9.37 S440.94,357.01,440.94,362.26"/>
      </g>
      <g>
        <path class="st16" d="M355.65,362.26c0,9.06,7.21,16.27,16.27,16.27s16.27-7.21,16.27-16.27s-7.21-16.27-16.27-16.27 S355.65,353.09,355.65,362.26"/>
      </g>
      <g>
        <path class="st17" d="M362.86,362.26c0,5.15,4.12,9.37,9.37,9.37c5.15,0,9.37-4.12,9.37-9.37c0-5.15-4.12-9.37-9.37-9.37 C367.09,352.89,362.86,357.01,362.86,362.26"/>
      </g>
      <g>
        <path class="st17" d="M562.49,369.57h34.09c1.65,0,2.88-1.24,2.88-2.88v-17c0-1.65-1.24-2.88-2.88-2.88h-34.09 c-1.65,0-2.88,1.24-2.88,2.88v17C559.6,368.34,560.84,369.57,562.49,369.57"/>
      </g>
      <g>
        <path class="st15" d="M350.5,322.5h29.77c1.03,0,1.85-0.82,1.85-1.85v-31.73c0-1.03-0.82-1.85-1.85-1.85h-17.72 c-0.82,0-1.44,0.41-1.85,1.03l-12.15,25.54c-0.21,0.21-0.21,0.62-0.21,0.82v6.18C348.65,321.68,349.58,322.5,350.5,322.5"/>
      </g>
    </g>
  </g>
  <g>
    <path class="st18" d="M301.35,70.05c0-0.9-0.5-1.9-1.4-2.4l0,0l-6.4-3.7c-1-0.6-2.2-0.8-3.4-0.7h-52.2l-10.5-9.7h-6.4l7.7,17 c1,2.4,3.4,3.9,6.1,3.9h56.6c2.9,0.2,5.9-0.6,8.5-2c0.2-0.1,0.2-0.2,0.3-0.2l0,0l0,0C300.95,71.65,301.35,70.85,301.35,70.05z"/>
    <path class="st19" d="M262.95,76.25v3.3c-1.7,0.1-3.4-0.2-5-0.7v-1.9C259.55,76.55,261.35,76.25,262.95,76.25z"/>
    <path class="st18" d="M262.25,80.15h5.4c0.9,0,1.6-0.4,1.6-1.2v-1.9c0-0.9-0.5-1.2-1.6-1.2h-5.4V80.15z"/>
    <path class="st20" d="M282.75,67.45c0,0.4,0.4,0.7,0.8,0.6h0.6c0.4,0,0.7-0.2,0.8-0.6v-1c-0.1-0.4-0.4-0.7-0.8-0.6h-0.6 c-0.4,0-0.7,0.2-0.8,0.6V67.45z"/>
    <path class="st20" d="M286.35,69.35c0.1,0.6,0.5,0.9,1,0.9l0,0h0.8c0.6,0.1,1-0.3,1-0.9v-3.1c-0.1-0.6-0.6-0.9-1-0.9h-0.8 c-0.6-0.1-1,0.3-1,0.9V69.35z"/>
    <path class="st20" d="M294.55,64.45h-2c-0.6,0.1-0.9,0.6-0.9,1v0.8c-0.1,0.6,0.3,1,0.9,1h7.2"/>
    <path class="st20" d="M242.25,69.35c0.1,0.6,0.6,0.9,1,0.9h0.8c0.6,0.1,1-0.3,1-0.9v-3.1c-0.1-0.6-0.6-0.9-1-0.9h-0.8 c-0.6-0.1-1,0.3-1,0.9V69.35z"/>
    <path class="st20" d="M279.05,67.45c0,0.4,0.4,0.7,0.8,0.6h0.6c0.4,0,0.7-0.2,0.8-0.6v-1c-0.1-0.4-0.4-0.7-0.8-0.6h-0.6 c-0.4,0-0.7,0.2-0.8,0.6V67.45z"/>
    <path class="st20" d="M275.55,67.45c0,0.4,0.4,0.7,0.8,0.6h0.6c0.4,0,0.7-0.2,0.8-0.6v-1c-0.1-0.4-0.4-0.7-0.8-0.6h-0.6 c-0.4,0-0.7,0.2-0.8,0.6V67.45z"/>
    <path class="st20" d="M271.85,67.45c0.1,0.4,0.4,0.7,0.8,0.6h0.6c0.4,0,0.7-0.2,0.8-0.6v-1c-0.1-0.4-0.4-0.7-0.8-0.6h-0.6 c-0.4,0-0.7,0.2-0.8,0.6V67.45z"/>
    <path class="st20" d="M268.25,67.45c0.1,0.4,0.4,0.7,0.8,0.6h0.6c0.4,0,0.7-0.2,0.8-0.6v-1c0-0.4-0.4-0.7-0.8-0.6h-0.6 c-0.4,0-0.7,0.2-0.8,0.6V67.45z"/>
    <path class="st20" d="M264.75,67.45c0.1,0.4,0.4,0.7,0.8,0.6h0.6c0.4,0,0.7-0.2,0.8-0.6v-1c0-0.4-0.4-0.7-0.8-0.6h-0.6 c-0.4,0-0.7,0.2-0.8,0.6V67.45z"/>
    <path class="st20" d="M261.05,67.45c0,0.4,0.4,0.7,0.8,0.6h0.6c0.4,0,0.7-0.2,0.8-0.6v-1c-0.1-0.4-0.4-0.7-0.8-0.6h-0.6 c-0.4,0-0.7,0.2-0.8,0.6V67.45z"/>
    <path class="st20" d="M257.45,67.45c0,0.4,0.4,0.7,0.8,0.6h0.6c0.4,0,0.7-0.2,0.8-0.6v-1c0-0.4-0.4-0.7-0.8-0.7l0,0h-0.6 c-0.4,0-0.7,0.2-0.8,0.6V67.45z"/>
    <path class="st20" d="M253.95,67.45c0,0.4,0.4,0.7,0.8,0.6h0.6c0.4,0,0.7-0.2,0.8-0.6v-1c-0.1-0.4-0.4-0.7-0.8-0.6h-0.6 c-0.4,0-0.7,0.2-0.8,0.6V67.45z"/>
    <path class="st20" d="M250.25,67.45c0.1,0.4,0.4,0.7,0.8,0.6h0.6c0.4,0,0.7-0.2,0.8-0.6v-1c-0.1-0.4-0.4-0.7-0.8-0.6h-0.6 c-0.4,0-0.7,0.2-0.8,0.6V67.45z"/>
    <path class="st20" d="M246.65,67.45c0.1,0.4,0.4,0.7,0.8,0.6h0.6c0.4,0,0.7-0.2,0.8-0.6v-1c0-0.4-0.4-0.7-0.8-0.6h-0.6 c-0.4,0-0.7,0.2-0.8,0.6V67.45z"/>
    <path class="st20" d="M265.15,72.85h-9.2c-0.6,0-1.2,0.1-1.8,0.2l-10.9,3.1c-0.2,0.1-0.4,0.3-0.4,0.6c0.1,0.2,0.2,0.4,0.5,0.4h21.8 c1.2,0.1,2.3-0.8,2.4-2.1c0.1-1.2-0.8-2.3-2.1-2.4C265.45,72.85,265.25,72.85,265.15,72.85z"/>
    <path class="st20" d="M235.05,66.95h-3.7c-0.4,0-0.7,0.1-1.1,0.2l-6.6,2c-0.2,0-0.2,0.2-0.2,0.3c0,0.2,0.2,0.2,0.3,0.2l0,0h11.4 c0.7,0,1.3-0.6,1.3-1.3C236.35,67.55,235.75,66.95,235.05,66.95z"/>
    <polygon class="st20" points="237.95,63.15 225.55,63.15 221.05,53.45 227.45,53.45 &#9;"/>
  </g>
  <path class="st21" d="M464.37,98.89L464.37,98.89c0,0.86,0.43,1.72,1.51,1.94v8.17c-1.29,0.43-1.94,1.72-1.94,2.8h-2.15l0,0 c-0.43,0-1.29,0.43-1.29,1.29v12.47h16.99v-12.69l0,0l0,0c0-0.43-0.43-0.86-0.86-0.86h-2.58c0-1.51-0.43-2.58-1.94-2.8v-8.17h0.22 c0.86-0.22,1.51-0.86,1.51-1.72h92.46v101.49c-3.87,0.22-6.88,2.15-7.31,6.45h-6.24v-0.22c0-1.72-1.29-3.01-2.8-3.66v-25.37l0,0 c0-1.94-1.72-3.66-3.87-3.66h-36.55l0,0c-1.94,0-3.66,1.72-3.66,3.87v25.16c-1.51,0.43-2.58,1.94-2.58,3.66v0.22h-0.22 c-23.65,0-27.09,17.2-27.09,17.2h246.57v-17.2H688v-9.46l0,0c0-0.43-0.43-0.86-1.29-0.86h-10.75l0,0c-0.43,0-1.29,0.43-1.29,1.29 v9.25h-2.58v-9.46l0,0c0-0.43-0.43-0.86-1.29-0.86h-10.75l0,0c-0.43,0-1.29,0.43-1.29,1.29v9.25h-1.94v-9.46 c0-0.43-0.43-0.86-1.29-0.86h-11.18l0,0c-0.43,0-1.29,0.43-1.29,1.29v9.25h-10.11c-0.43-3.66-3.87-6.45-7.74-6.45V99.32h14.62v9.89 h12.47l0,0c1.94,0,3.44-1.72,3.01-3.66v-6.24h8.82V89.21h-2.8l-89.45-42.36v-2.58c0-1.51-4.52-1.51-4.52,0v1.94L452.33,88.13h-3.87 l0,0c-3.87,0-7.31,3.44-7.31,7.31v3.01L464.37,98.89 M620.7,77.38c0,0-0.22-0.22-0.43-0.22l0,0c-0.86,0-1.72,0.86-1.51,1.72v9.03 l-44.94-39.99l86.01,40.64h-22.79v-3.87c0,0-0.22-7.31-9.03-7.31H620.7 M618.55,101.9v17.42h-44.08L618.55,101.9z M574.9,123.4h44.3 v76.55c-4.3,0-7.96,1.94-8.17,6.45h-27.95c-0.86-3.66-3.87-6.45-7.96-6.45h-0.22V123.4L574.9,123.4z M574.9,98.89h43.65l-43.65,17.2 V98.89z M572.75,49l44.51,39.35h-44.51V49z M528.88,189.84h-2.8v-7.31h2.8V189.84z M543.5,202.53c-1.72,0.43-2.8,1.94-2.8,3.66v0.22 h-24.3v-0.22c0-1.72-1.29-3.44-2.8-3.66v-21.5h10.54l0,0c0,0.43,0.43,1.29,1.29,1.29v7.31c-1.29,0.22-1.72,1.51-1.72,2.58h-2.15 c-0.43,0-0.86,0.43-0.86,0.86v3.87h14.84v-3.87c0-0.43-0.43-0.86-0.86-0.86h-2.15c0-1.29-0.43-2.15-1.72-2.58v-7.31l0,0 c0.86,0,1.51-0.43,1.51-1.51h11.4L543.5,202.53L543.5,202.53z M492.54,88.35l76.12-39.78v39.78H492.54z M467.38,100.61h3.01v8.17 h-3.01V100.61z M456.2,88.35l108.8-38.92l-74.61,38.92H456.2z"/>
  <g>
    <path class="st22" d="M536.49,131.32h-36.64c0-4.66,1.6-6.47,7.93-6.47h5.7c0-6.67,2.29-9.39,11.47-9.39 c7.16,0,8.83,2.09,8.83,7.23c8.48,0,10.57,2.5,10.57,8.62h-13.56"/>
  </g>
  <g>
    <path class="st22" d="M379.76,86.45c5.9,0,7.4,1.6,7.4,6.1h8.2c8.4,0,10.5,2.4,10.5,8.6h-81c0-4.3,1.5-6.1,7.4-6.1 c0-6.2,2.1-8.6,10.5-8.6h5.9c0-7.7,2.6-10.9,13.3-10.9s13.3,3.1,13.3,10.9H379.76z"/>
  </g>
  <g>
    <path class="st22" d="M108.64,88.51c7.45,0,9.23,2.02,9.23,7.53h10.21c10.45,0,13.2,3.08,13.2,10.69H39.96 c0-5.35,1.78-7.53,9.23-7.53c0-7.69,2.59-10.69,13.2-10.69h7.45c0-9.64,3.32-13.61,16.68-13.61s16.68,3.81,16.68,13.61H108.64z"/>
  </g>
  <g>
    <g>
      <g>
        <g>
          <g>
            <path class="st37" d="M192.65,199.94v-24.2l0,0c0-1.3,1.18-2.6,2.6-2.6h88.3c1.65,0,2.95,1.18,2.95,2.6v24.2H192.65z"/>
            <path class="st38" d="M198.2,195.69c0.35,0,0.59-0.24,0.59-0.59v-17.82c0-0.35-0.35-0.59-0.59-0.59h-1.06 c-0.35,0-0.59,0.35-0.59,0.59v17.82c0,0.35,0.35,0.59,0.59,0.59H198.2"/>
            <path class="st38" d="M202.92,195.69c0.47,0,0.71,0,0.35-0.59v-17.82c0-0.35-0.35-0.59-0.59-0.59h-1.06 c-0.12,0-0.35,0.35-0.35,0.59v17.82l0,0c0,0.35,0.35,0.59,0.59,0.59H202.92"/>
            <path class="st38" d="M207.53,195.69L207.53,195.69c0.35,0,0.59-0.24,0.59-0.59v-17.82l0,0c0-0.35-0.35-0.59-0.59-0.59h-1.06 c-0.35,0-0.59,0.35-0.59,0.59v17.82l0,0c0,0.35,0.35,0.59,0.59,0.59H207.53"/>
            <path class="st38" d="M212.25,195.69L212.25,195.69c0.47,0,0.47-0.24,0.59-0.59v-17.82l0,0c0-0.35-0.35-0.59-0.59-0.59h-1.06 c-0.35,0-0.59,0.35-0.59,0.59v17.82l0,0c0,0.35,0.35,0.59,0.59,0.59H212.25"/>
            <path class="st38" d="M216.97,195.69L216.97,195.69c0.24,0,0.35-0.24,0.59-0.59v-17.82l0,0c0-0.35-0.35-0.59-0.59-0.59h-1.06 c-0.35,0-0.59,0.35-0.59,0.59v17.82l0,0c0,0.35,0.35,0.59,0.59,0.59H216.97"/>
            <path class="st38" d="M221.46,195.69c0.24,0,0.59-0.24,0.59-0.59v-17.82c0-0.35-0.35-0.59-0.59-0.59h-1.06 c-0.35,0-0.59,0.35-0.59,0.59v17.82l0,0c0,0.35,0.35,0.59,0.59,0.59H221.46"/>
            <path class="st38" d="M226.3,195.69L226.3,195.69c0.24,0,0.35-0.24,0.59-0.59v-17.82l0,0c0-0.35-0.35-0.59-0.59-0.59h-1.06 c-0.35,0-0.59,0.35-0.59,0.59v17.82l0,0c0,0.35,0.35,0.59,0.59,0.59H226.3"/>
            <path class="st38" d="M230.78,195.69L230.78,195.69c0.24,0,0.35-0.24,0.59-0.59v-17.82l0,0c0-0.35-0.35-0.59-0.59-0.59h-1.06 c-0.35,0-0.59,0.35-0.59,0.59v17.82l0,0c0,0.35,0.35,0.59,0.59,0.59H230.78"/>
            <path class="st38" d="M235.62,195.69L235.62,195.69c0.12,0,0.35-0.24,0.59-0.59v-17.82l0,0c0-0.35-0.35-0.59-0.59-0.59h-1.06 c-0.35,0-0.59,0.35-0.59,0.59v17.82l0,0c0,0.35,0.35,0.59,0.59,0.59H235.62"/>
            <path class="st38" d="M240.11,195.69L240.11,195.69c0.12,0,0.71-0.24,0.35-0.59v-17.82l0,0c0-0.35-0.35-0.59-0.59-0.59h-1.06 c-0.35,0-0.35,0.35-0.35,0.59v17.82l0,0c0,0.35,0.35,0.59,0.59,0.59H240.11"/>
            <path class="st38" d="M244.83,195.69L244.83,195.69c0.24,0,0.47-0.24,0.59-0.59v-17.82l0,0c0-0.35-0.35-0.59-0.59-0.59h-1.06 c-0.35,0-0.59,0.35-0.59,0.59v17.82l0,0c0,0.35,0.35,0.59,0.59,0.59H244.83"/>
            <path class="st38" d="M249.31,195.69L249.31,195.69c0.24,0,0.71-0.24,0.59-0.59v-17.82l0,0c0-0.35-0.35-0.59-0.59-0.59h-1.06 c-0.35,0-0.59,0.35-0.59,0.59v17.82l0,0c0,0.35,0.35,0.59,0.59,0.59H249.31"/>
            <path class="st38" d="M254.04,195.69c0.35,0,0.47-0.24,0.59-0.59v-17.82c0-0.35-0.35-0.59-0.59-0.59h-1.06 c-0.35,0-0.59,0.35-0.59,0.59v17.82l0,0c0,0.35,0.35,0.59,0.59,0.59H254.04"/>
            <path class="st38" d="M258.64,195.69c0.35,0,0.71-0.24,0.59-0.59v-17.82l0,0c0-0.35-0.35-0.59-0.59-0.59h-1.06 c-0.35,0-0.59,0.35-0.59,0.59v17.82l0,0c0,0.35,0.35,0.59,0.59,0.59H258.64"/>
            <path class="st39" d="M263.24,195.69L263.24,195.69c0.47,0,0.59-0.24,0.59-0.59v-17.82l0,0c0-0.35-0.35-0.59-0.59-0.59h-1.06 c-0.35,0-0.59,0.35-0.59,0.59v17.82l0,0c0,0.35,0.35,0.59,0.59,0.59H263.24"/>
            <path class="st39" d="M267.97,195.69L267.97,195.69c0.35,0,0.71-0.24,0.59-0.59v-17.82l0,0c0-0.35-0.35-0.59-0.59-0.59h-1.06 c-0.35,0-0.59,0.35-0.59,0.59v17.82l0,0c0,0.35,0.35,0.59,0.59,0.59H267.97"/>
            <path class="st39" d="M272.57,195.69L272.57,195.69c0.35,0,0.59-0.24,0.59-0.59v-17.82l0,0c0-0.35-0.35-0.59-0.59-0.59h-1.06 c-0.35,0-0.59,0.35-0.59,0.59v17.82l0,0c0,0.35,0.35,0.59,0.59,0.59H272.57"/>
            <path class="st39" d="M277.29,195.69L277.29,195.69c0.12,0,0.35-0.24,0.59-0.59v-17.82l0,0c0-0.35-0.35-0.59-0.59-0.59h-1.06 c-0.35,0-0.59,0.35-0.59,0.59v17.82l0,0c0,0.35,0.35,0.59,0.59,0.59H277.29"/>
            <path class="st39" d="M282.01,195.69L282.01,195.69c0.24,0,0.47-0.24,0.59-0.59v-17.82l0,0c0-0.35-0.35-0.59-0.59-0.59h-1.06 c-0.35,0-0.59,0.35-0.59,0.59v17.82l0,0c0,0.35,0.35,0.59,0.59,0.59H282.01"/>
            <path class="st37" d="M290.28,199.94v-24.2l0,0c0-1.3,1.18-2.6,2.6-2.6h88.3c1.65,0,2.95,1.18,2.95,2.6v24.2H290.28z"/>
            <path class="st38" d="M295.82,195.69c0.35,0,0.59-0.24,0.59-0.59v-17.82c0-0.35-0.35-0.59-0.59-0.59h-1.06 c-0.35,0-0.59,0.35-0.59,0.59v17.82c0,0.35,0.35,0.59,0.59,0.59H295.82"/>
            <path class="st38" d="M300.66,195.69c0.35,0,0.59,0,0.35-0.59v-17.82c0-0.35-0.35-0.59-0.59-0.59h-1.06 c-0.12,0-0.35,0.35-0.35,0.59v17.82l0,0c0,0.35,0.35,0.59,0.59,0.59H300.66"/>
            <path class="st38" d="M305.15,195.69L305.15,195.69c0.35,0,0.59-0.24,0.59-0.59v-17.82l0,0c0-0.35-0.35-0.59-0.59-0.59h-1.06 c-0.35,0-0.59,0.35-0.59,0.59v17.82l0,0c0,0.35,0.35,0.59,0.59,0.59H305.15"/>
            <path class="st38" d="M309.99,195.69L309.99,195.69c0.12,0,0.35-0.24,0.59-0.59v-17.82l0,0c0-0.35-0.35-0.59-0.59-0.59h-1.06 c-0.35,0-0.59,0.35-0.59,0.59v17.82l0,0c0,0.35,0.35,0.59,0.59,0.59H309.99"/>
            <path class="st38" d="M314.47,195.69L314.47,195.69c0.35,0,0.59-0.24,0.59-0.59v-17.82l0,0c0-0.35-0.35-0.59-0.59-0.59h-1.06 c-0.35,0-0.59,0.35-0.59,0.59v17.82l0,0c0,0.35,0.35,0.59,0.59,0.59H314.47"/>
            <path class="st38" d="M319.2,195.69c0.24,0,0.47-0.24,0.59-0.59v-17.82c0-0.35-0.35-0.59-0.59-0.59h-1.06 c-0.35,0-0.59,0.35-0.59,0.59v17.82l0,0c0,0.35,0.35,0.59,0.59,0.59H319.2"/>
            <path class="st38" d="M323.68,195.69L323.68,195.69c0.47,0,0.59-0.24,0.59-0.59v-17.82l0,0c0-0.35-0.35-0.59-0.59-0.59h-1.06 c-0.35,0-0.59,0.35-0.59,0.59v17.82l0,0c0,0.35,0.35,0.59,0.59,0.59H323.68"/>
            <path class="st38" d="M328.52,195.69L328.52,195.69c0.24,0,0.35-0.24,0.59-0.59v-17.82l0,0c0-0.35-0.35-0.59-0.59-0.59h-1.06 c-0.35,0-0.59,0.35-0.59,0.59v17.82l0,0c0,0.35,0.35,0.59,0.59,0.59H328.52"/>
            <path class="st38" d="M333.01,195.69L333.01,195.69c0.35,0,0.59-0.24,0.59-0.59v-17.82l0,0c0-0.35-0.35-0.59-0.59-0.59h-1.06 c-0.35,0-0.59,0.35-0.59,0.59v17.82l0,0c0,0.35,0.35,0.59,0.59,0.59H333.01"/>
            <path class="st38" d="M337.85,195.69L337.85,195.69c0.12,0,0.35-0.24,0.35-0.59v-17.82l0,0c0-0.35-0.35-0.59-0.59-0.59h-1.06 c-0.35,0-0.35,0.35-0.35,0.59v17.82l0,0c0,0.35,0.35,0.59,0.59,0.59H337.85"/>
            <path class="st38" d="M342.45,195.69L342.45,195.69c0.24,0,0.47-0.24,0.59-0.59v-17.82l0,0c0-0.35-0.35-0.59-0.59-0.59h-1.06 c-0.35,0-0.59,0.35-0.59,0.59v17.82l0,0c0,0.35,0.35,0.59,0.59,0.59H342.45"/>
            <path class="st38" d="M347.17,195.69L347.17,195.69c0.12,0,0.35-0.24,0.59-0.59v-17.82l0,0c0-0.35-0.35-0.59-0.59-0.59h-1.06 c-0.35,0-0.59,0.35-0.59,0.59v17.82l0,0c0,0.35,0.35,0.59,0.59,0.59H347.17"/>
            <path class="st38" d="M351.66,195.69c0.12,0,0.47-0.24,0.59-0.59v-17.82c0-0.35-0.35-0.59-0.59-0.59h-1.06 c-0.35,0-0.59,0.35-0.59,0.59v17.82l0,0c0,0.35,0.35,0.59,0.59,0.59H351.66"/>
            <path class="st38" d="M356.38,195.69c0.24,0,0.47-0.24,0.59-0.59v-17.82l0,0c0-0.35-0.35-0.59-0.59-0.59h-1.06 c-0.35,0-0.59,0.35-0.59,0.59v17.82l0,0c0,0.35,0.35,0.59,0.59,0.59H356.38"/>
            <path class="st39" d="M360.87,195.69L360.87,195.69c0.24,0,0.59-0.24,0.59-0.59v-17.82l0,0c0-0.35-0.35-0.59-0.59-0.59h-1.06 c-0.35,0-0.59,0.35-0.59,0.59v17.82l0,0c0,0.35,0.35,0.59,0.59,0.59H360.87"/>
            <path class="st39" d="M365.71,195.69L365.71,195.69c0.24,0,0.59-0.24,0.59-0.59v-17.82l0,0c0-0.35-0.35-0.59-0.59-0.59h-1.06 c-0.35,0-0.59,0.35-0.59,0.59v17.82l0,0c0,0.35,0.35,0.59,0.59,0.59H365.71"/>
            <path class="st39" d="M370.19,195.69L370.19,195.69c0.35,0,0.59-0.24,0.59-0.59v-17.82l0,0c0-0.35-0.35-0.59-0.59-0.59h-1.06 c-0.35,0-0.59,0.35-0.59,0.59v17.82l0,0c0,0.35,0.35,0.59,0.59,0.59H370.19"/>
            <path class="st39" d="M374.68,195.69C374.68,195.69,375.03,195.69,374.68,195.69c0.47,0,0.71-0.24,0.59-0.59v-17.82l0,0 c0-0.35-0.35-0.59-0.59-0.59h-1.06c-0.35,0-0.59,0.35-0.59,0.59v17.82l0,0c0,0.35,0.35,0.59,0.59,0.59H374.68"/>
            <path class="st39" d="M379.64,195.69L379.64,195.69c0.47,0,0.59-0.24,0.59-0.59v-17.82l0,0c0-0.35-0.35-0.59-0.59-0.59h-1.06 c-0.35,0-0.59,0.35-0.59,0.59v17.82l0,0c0,0.35,0.35,0.59,0.59,0.59H379.64"/>
          </g>
          <g>
            <path class="st37" d="M192.65,172.79v-24.2l0,0c0-1.3,1.18-2.6,2.6-2.6h88.3c1.65,0,2.95,1.18,2.95,2.6v24.2H192.65z"/>
            <path class="st38" d="M198.2,168.66c0.35,0,0.59-0.12,0.59-0.71v-17.59c0-0.35-0.35-0.59-0.59-0.59h-1.06 c-0.35,0-0.59,0.35-0.59,0.59v17.71c0,0.35,0.35,0.59,0.59,0.59H198.2"/>
            <path class="st38" d="M202.92,168.66c0.47,0,0.71-0.12,0.35-0.71v-17.59c0-0.35-0.35-0.59-0.59-0.59h-1.06 c-0.12,0-0.35,0.35-0.35,0.59v17.71l0,0c0,0.35,0.35,0.59,0.59,0.59H202.92"/>
            <path class="st38" d="M207.53,168.66L207.53,168.66c0.35,0,0.59-0.12,0.59-0.71v-17.59l0,0c0-0.35-0.35-0.59-0.59-0.59h-1.06 c-0.35,0-0.59,0.35-0.59,0.59v17.71l0,0c0,0.35,0.35,0.59,0.59,0.59H207.53"/>
            <path class="st38" d="M212.25,168.66L212.25,168.66c0.47,0,0.47-0.12,0.59-0.71v-17.59l0,0c0-0.35-0.35-0.59-0.59-0.59h-1.06 c-0.35,0-0.59,0.35-0.59,0.59v17.71l0,0c0,0.35,0.35,0.59,0.59,0.59H212.25"/>
            <path class="st38" d="M216.97,168.66L216.97,168.66c0.24,0,0.35-0.12,0.59-0.71v-17.59l0,0c0-0.35-0.35-0.59-0.59-0.59h-1.06 c-0.35,0-0.59,0.35-0.59,0.59v17.71l0,0c0,0.35,0.35,0.59,0.59,0.59H216.97"/>
            <path class="st38" d="M221.46,168.66c0.24,0,0.59-0.12,0.59-0.71v-17.59c0-0.35-0.35-0.59-0.59-0.59h-1.06 c-0.35,0-0.59,0.35-0.59,0.59v17.71l0,0c0,0.35,0.35,0.59,0.59,0.59H221.46"/>
            <path class="st38" d="M226.3,168.66L226.3,168.66c0.24,0,0.35-0.12,0.59-0.71v-17.59l0,0c0-0.35-0.35-0.59-0.59-0.59h-1.06 c-0.35,0-0.59,0.35-0.59,0.59v17.71l0,0c0,0.35,0.35,0.59,0.59,0.59H226.3"/>
            <path class="st38" d="M230.78,168.66L230.78,168.66c0.24,0,0.35-0.12,0.59-0.71v-17.59l0,0c0-0.35-0.35-0.59-0.59-0.59h-1.06 c-0.35,0-0.59,0.35-0.59,0.59v17.71l0,0c0,0.35,0.35,0.59,0.59,0.59H230.78"/>
            <path class="st38" d="M235.62,168.66L235.62,168.66c0.12,0,0.35-0.12,0.59-0.71v-17.59l0,0c0-0.35-0.35-0.59-0.59-0.59h-1.06 c-0.35,0-0.59,0.35-0.59,0.59v17.71l0,0c0,0.35,0.35,0.59,0.59,0.59H235.62"/>
            <path class="st38" d="M240.11,168.66L240.11,168.66c0.12,0,0.71-0.12,0.35-0.71v-17.59l0,0c0-0.35-0.35-0.59-0.59-0.59h-1.06 c-0.35,0-0.35,0.35-0.35,0.59v17.71l0,0c0,0.35,0.35,0.59,0.59,0.59H240.11"/>
            <path class="st38" d="M244.83,168.66L244.83,168.66c0.24,0,0.47-0.12,0.59-0.71v-17.59l0,0c0-0.35-0.35-0.59-0.59-0.59h-1.06 c-0.35,0-0.59,0.35-0.59,0.59v17.71l0,0c0,0.35,0.35,0.59,0.59,0.59H244.83"/>
            <path class="st38" d="M249.31,168.66L249.31,168.66c0.24,0,0.71-0.12,0.59-0.71v-17.59l0,0c0-0.35-0.35-0.59-0.59-0.59h-1.06 c-0.35,0-0.59,0.35-0.59,0.59v17.71l0,0c0,0.35,0.35,0.59,0.59,0.59H249.31"/>
            <path class="st38" d="M254.04,168.66c0.35,0,0.47-0.12,0.59-0.71v-17.59c0-0.35-0.35-0.59-0.59-0.59h-1.06 c-0.35,0-0.59,0.35-0.59,0.59v17.71l0,0c0,0.35,0.35,0.59,0.59,0.59H254.04"/>
            <path class="st38" d="M258.64,168.66c0.35,0,0.71-0.12,0.59-0.71v-17.59l0,0c0-0.35-0.35-0.59-0.59-0.59h-1.06 c-0.35,0-0.59,0.35-0.59,0.59v17.71l0,0c0,0.35,0.35,0.59,0.59,0.59H258.64"/>
            <path class="st39" d="M263.24,168.66L263.24,168.66c0.47,0,0.59-0.12,0.59-0.71v-17.59l0,0c0-0.35-0.35-0.59-0.59-0.59h-1.06 c-0.35,0-0.59,0.35-0.59,0.59v17.71l0,0c0,0.35,0.35,0.59,0.59,0.59H263.24"/>
            <path class="st39" d="M267.97,168.66L267.97,168.66c0.35,0,0.71-0.12,0.59-0.71v-17.59l0,0c0-0.35-0.35-0.59-0.59-0.59h-1.06 c-0.35,0-0.59,0.35-0.59,0.59v17.71l0,0c0,0.35,0.35,0.59,0.59,0.59H267.97"/>
            <path class="st39" d="M272.57,168.66L272.57,168.66c0.35,0,0.59-0.12,0.59-0.71v-17.59l0,0c0-0.35-0.35-0.59-0.59-0.59h-1.06 c-0.35,0-0.59,0.35-0.59,0.59v17.71l0,0c0,0.35,0.35,0.59,0.59,0.59H272.57"/>
            <path class="st39" d="M277.29,168.66L277.29,168.66c0.12,0,0.35-0.12,0.59-0.71v-17.59l0,0c0-0.35-0.35-0.59-0.59-0.59h-1.06 c-0.35,0-0.59,0.35-0.59,0.59v17.71l0,0c0,0.35,0.35,0.59,0.59,0.59H277.29"/>
            <path class="st39" d="M282.01,168.66L282.01,168.66c0.24,0,0.47-0.12,0.59-0.71v-17.59l0,0c0-0.35-0.35-0.59-0.59-0.59h-1.06 c-0.35,0-0.59,0.35-0.59,0.59v17.71l0,0c0,0.35,0.35,0.59,0.59,0.59H282.01"/>
            <path class="st37" d="M290.28,172.79v-24.2l0,0c0-1.3,1.18-2.6,2.6-2.6h88.3c1.65,0,2.95,1.18,2.95,2.6v24.2H290.28z"/>
            <path class="st38" d="M295.82,168.66c0.35,0,0.59-0.12,0.59-0.71v-17.59c0-0.35-0.35-0.59-0.59-0.59h-1.06 c-0.35,0-0.59,0.35-0.59,0.59v17.71c0,0.35,0.35,0.59,0.59,0.59H295.82"/>
            <path class="st38" d="M300.66,168.66c0.35,0,0.59-0.12,0.35-0.71v-17.59c0-0.35-0.35-0.59-0.59-0.59h-1.06 c-0.12,0-0.35,0.35-0.35,0.59v17.71l0,0c0,0.35,0.35,0.59,0.59,0.59H300.66"/>
            <path class="st38" d="M305.15,168.66L305.15,168.66c0.35,0,0.59-0.12,0.59-0.71v-17.59l0,0c0-0.35-0.35-0.59-0.59-0.59h-1.06 c-0.35,0-0.59,0.35-0.59,0.59v17.71l0,0c0,0.35,0.35,0.59,0.59,0.59H305.15"/>
            <path class="st38" d="M309.99,168.66L309.99,168.66c0.12,0,0.35-0.12,0.59-0.71v-17.59l0,0c0-0.35-0.35-0.59-0.59-0.59h-1.06 c-0.35,0-0.59,0.35-0.59,0.59v17.71l0,0c0,0.35,0.35,0.59,0.59,0.59H309.99"/>
            <path class="st38" d="M314.47,168.66L314.47,168.66c0.35,0,0.59-0.12,0.59-0.71v-17.59l0,0c0-0.35-0.35-0.59-0.59-0.59h-1.06 c-0.35,0-0.59,0.35-0.59,0.59v17.71l0,0c0,0.35,0.35,0.59,0.59,0.59H314.47"/>
            <path class="st38" d="M319.2,168.66c0.24,0,0.47-0.12,0.59-0.71v-17.59c0-0.35-0.35-0.59-0.59-0.59h-1.06 c-0.35,0-0.59,0.35-0.59,0.59v17.71l0,0c0,0.35,0.35,0.59,0.59,0.59H319.2"/>
            <path class="st38" d="M323.68,168.66L323.68,168.66c0.47,0,0.59-0.12,0.59-0.71v-17.59l0,0c0-0.35-0.35-0.59-0.59-0.59h-1.06 c-0.35,0-0.59,0.35-0.59,0.59v17.71l0,0c0,0.35,0.35,0.59,0.59,0.59H323.68"/>
            <path class="st38" d="M328.52,168.66L328.52,168.66c0.24,0,0.35-0.12,0.59-0.71v-17.59l0,0c0-0.35-0.35-0.59-0.59-0.59h-1.06 c-0.35,0-0.59,0.35-0.59,0.59v17.71l0,0c0,0.35,0.35,0.59,0.59,0.59H328.52"/>
            <path class="st38" d="M333.01,168.66L333.01,168.66c0.35,0,0.59-0.12,0.59-0.71v-17.59l0,0c0-0.35-0.35-0.59-0.59-0.59h-1.06 c-0.35,0-0.59,0.35-0.59,0.59v17.71l0,0c0,0.35,0.35,0.59,0.59,0.59H333.01"/>
            <path class="st38" d="M337.85,168.66L337.85,168.66c0.12,0,0.35-0.12,0.35-0.71v-17.59l0,0c0-0.35-0.35-0.59-0.59-0.59h-1.06 c-0.35,0-0.35,0.35-0.35,0.59v17.71l0,0c0,0.35,0.35,0.59,0.59,0.59H337.85"/>
            <path class="st38" d="M342.45,168.66L342.45,168.66c0.24,0,0.47-0.12,0.59-0.71v-17.59l0,0c0-0.35-0.35-0.59-0.59-0.59h-1.06 c-0.35,0-0.59,0.35-0.59,0.59v17.71l0,0c0,0.35,0.35,0.59,0.59,0.59H342.45"/>
            <path class="st38" d="M347.17,168.66L347.17,168.66c0.12,0,0.35-0.12,0.59-0.71v-17.59l0,0c0-0.35-0.35-0.59-0.59-0.59h-1.06 c-0.35,0-0.59,0.35-0.59,0.59v17.71l0,0c0,0.35,0.35,0.59,0.59,0.59H347.17"/>
            <path class="st38" d="M351.66,168.66c0.12,0,0.47-0.12,0.59-0.71v-17.59c0-0.35-0.35-0.59-0.59-0.59h-1.06 c-0.35,0-0.59,0.35-0.59,0.59v17.71l0,0c0,0.35,0.35,0.59,0.59,0.59H351.66"/>
            <path class="st38" d="M356.38,168.66c0.24,0,0.47-0.12,0.59-0.71v-17.59l0,0c0-0.35-0.35-0.59-0.59-0.59h-1.06 c-0.35,0-0.59,0.35-0.59,0.59v17.71l0,0c0,0.35,0.35,0.59,0.59,0.59H356.38"/>
            <path class="st39" d="M360.87,168.66L360.87,168.66c0.24,0,0.59-0.12,0.59-0.71v-17.59l0,0c0-0.35-0.35-0.59-0.59-0.59h-1.06 c-0.35,0-0.59,0.35-0.59,0.59v17.71l0,0c0,0.35,0.35,0.59,0.59,0.59H360.87"/>
            <path class="st39" d="M365.71,168.66L365.71,168.66c0.24,0,0.59-0.12,0.59-0.71v-17.59l0,0c0-0.35-0.35-0.59-0.59-0.59h-1.06 c-0.35,0-0.59,0.35-0.59,0.59v17.71l0,0c0,0.35,0.35,0.59,0.59,0.59H365.71"/>
            <path class="st39" d="M370.19,168.66L370.19,168.66c0.35,0,0.59-0.12,0.59-0.71v-17.59l0,0c0-0.35-0.35-0.59-0.59-0.59h-1.06 c-0.35,0-0.59,0.35-0.59,0.59v17.71l0,0c0,0.35,0.35,0.59,0.59,0.59H370.19"/>
            <path class="st39" d="M374.68,168.66C374.68,168.66,375.03,168.66,374.68,168.66c0.47,0,0.71-0.12,0.59-0.71v-17.59l0,0 c0-0.35-0.35-0.59-0.59-0.59h-1.06c-0.35,0-0.59,0.35-0.59,0.59v17.71l0,0c0,0.35,0.35,0.59,0.59,0.59H374.68"/>
            <path class="st39" d="M379.64,168.66L379.64,168.66c0.47,0,0.59-0.12,0.59-0.71v-17.59l0,0c0-0.35-0.35-0.59-0.59-0.59h-1.06 c-0.35,0-0.59,0.35-0.59,0.59v17.71l0,0c0,0.35,0.35,0.59,0.59,0.59H379.64"/>
          </g>
          <polygon class="st40" points="117.69,171.13 126.08,139.5 139.53,139.5 139.53,171.13 &#9;&#9;&#9;&#9;"/>
          <path class="st18" d="M433.82,226.5c-4.13-2.95-5.67-7.2-5.08-12.28l29.16-31.64h-50.76c-2.36,0-5.19,0.59-7.2,2.01 l-25.26,15.46H188.52l-10.74-11.1c-2.12-2.24-5.08-3.54-8.26-3.54H90.31l14.87,31.16c2.95,6.02,9.09,9.92,15.94,9.92H433.82"/>
          <rect x="144.49" y="156.62" class="st41" width="17.12" height="14.52"/>
          <path class="st42" d="M165.15,185.3v-13.46l0,0c0-1.18-0.94-2.24-2.24-2.24h-54.54l0,0c-1.18,0-2.01,0.94-2.01,2.24v13.34"/>
          <path class="st42" d="M144.25,156.62h19.12c0.83,0,1.65-0.83,1.65-1.65v-2.24h-20.78V156.62z"/>
          <polygon class="st43" points="124.42,145.99 139.53,145.99 139.53,162.99 119.94,162.99 &#9;&#9;&#9;&#9;"/>
          <polygon class="st22" points="125.37,155.91 125.37,155.91 129.62,155.91 128.55,160.04 128.55,160.04 131.27,156.62 &#10;&#9;&#9;&#9;&#9;&#9;134.1,160.04 134.1,160.04 133.16,155.91 137.41,155.91 137.41,155.91 133.51,154.02 136.35,150.48 136.35,150.48 &#10;&#9;&#9;&#9;&#9;&#9;132.21,152.37 131.27,148.23 131.27,148.23 130.44,152.37 126.43,150.48 126.43,150.48 129.03,154.02 &#9;&#9;&#9;&#9;"/>
        </g>
      </g>
    </g>
    <g/>
    <g>
      <g>
        <g/>
      </g>
    </g>
  </g>
</svg>